<?xml version="1.0"?>
<svg xmlns="http://www.w3.org/2000/svg" viewBox="0 0 128 128" width="512" height="512"><path d="M119.018,33.964H82.6a6.99,6.99,0,0,0-6.983,6.982V60.277A6.991,6.991,0,0,0,82.6,67.26h7.9v7.614a1,1,0,0,0,1.662.75l9.467-8.364h17.386A6.991,6.991,0,0,0,126,60.277V40.946A6.99,6.99,0,0,0,119.018,33.964Z" fill="#e6e7e8"/><path d="M81.856,78.28H72.667V69.421a1,1,0,0,0-1.662-.75L60.128,78.28H40.177a7.857,7.857,0,0,0-7.848,7.847v22.125a7.857,7.857,0,0,0,7.848,7.847H81.856a7.856,7.856,0,0,0,7.847-7.847V86.127A7.856,7.856,0,0,0,81.856,78.28Z" fill="#e6e7e8"/><path d="M49.816,69.453a1,1,0,0,0,1.662-.749V58.522H62.033A8.775,8.775,0,0,0,70.8,49.757V24.666A8.775,8.775,0,0,0,62.033,15.9H14.765A8.775,8.775,0,0,0,6,24.666V49.757a8.775,8.775,0,0,0,8.765,8.765H37.443Z" fill="#e6e7e8"/><path d="M115.017,30.964H78.6a5.983,5.983,0,0,0-5.983,5.982V56.277A5.983,5.983,0,0,0,78.6,62.26h8.9v8.615l9.751-8.615h17.763A5.983,5.983,0,0,0,121,56.277V36.946A5.983,5.983,0,0,0,115.017,30.964Z" fill="#0089ef"/><path d="M115.017,30.964H78.6a5.983,5.983,0,0,0-5.983,5.982v3A5.983,5.983,0,0,1,78.6,33.964h36.416A5.983,5.983,0,0,1,121,39.946v-3A5.983,5.983,0,0,0,115.017,30.964Z" fill="#fff"/><path d="M92.357,50.932v.026a1.487,1.487,0,0,1-2.078,1.364L81.9,48.691a2.133,2.133,0,0,1-1.285-1.957v-.023A2.133,2.133,0,0,1,81.9,44.754l8.376-3.63a1.486,1.486,0,0,1,2.078,1.364v.04a1.486,1.486,0,0,1-.952,1.387L84.178,46.7l7.237,2.849A1.487,1.487,0,0,1,92.357,50.932Z" fill="#fff"/><path d="M98.976,37.771a1.382,1.382,0,0,0-1.668,1.017l-3.683,15.22a1.382,1.382,0,0,0,1.017,1.667,1.4,1.4,0,0,0,.327.039,1.377,1.377,0,0,0,1.341-1.056l3.683-15.22A1.382,1.382,0,0,0,98.976,37.771Z" fill="#fff"/><path d="M111.718,48.662l-8.377,3.647a1.486,1.486,0,0,1-2.08-1.363v-.02a1.488,1.488,0,0,1,.943-1.384l7.261-2.85-7.254-2.807a1.485,1.485,0,0,1-.95-1.386h0a1.486,1.486,0,0,1,2.075-1.365l8.376,3.613A2.136,2.136,0,0,1,113,46.706h0A2.134,2.134,0,0,1,111.718,48.662Z" fill="#fff"/><path d="M36.177,111.1H77.856a6.848,6.848,0,0,0,6.847-6.847V82.127a6.848,6.848,0,0,0-6.847-6.847H67.667V65.421L56.507,75.28H36.177a6.848,6.848,0,0,0-6.848,6.847v22.125A6.848,6.848,0,0,0,36.177,111.1Z" fill="#fa759e"/><path d="M50.926,102.563a1.314,1.314,0,0,1,0,1.811,1.343,1.343,0,0,1-.906.31H48.08a3.1,3.1,0,0,1-2.315-.828,3.141,3.141,0,0,1-.815-2.3V96.536a2.463,2.463,0,0,0-.361-1.5,1.747,1.747,0,0,0-1.294-.543,1.2,1.2,0,0,1-1.242-1.268,1.213,1.213,0,0,1,.324-.879,1.294,1.294,0,0,1,.918-.362,1.751,1.751,0,0,0,1.294-.543,2.467,2.467,0,0,0,.361-1.5V84.922a3.141,3.141,0,0,1,.815-2.3,3.1,3.1,0,0,1,2.315-.828h1.94a1.344,1.344,0,0,1,.906.311,1.312,1.312,0,0,1,0,1.81,1.344,1.344,0,0,1-.906.311h-.827a1.107,1.107,0,0,0-.815.271,1.187,1.187,0,0,0-.272.867v4.966a3.106,3.106,0,0,1-.608,1.953,2.465,2.465,0,0,1-1.435.97,2.489,2.489,0,0,1,1.435.957,3.053,3.053,0,0,1,.608,1.94v4.966a1.187,1.187,0,0,0,.272.867,1.108,1.108,0,0,0,.815.272h.827A1.343,1.343,0,0,1,50.926,102.563Z" fill="#fff"/><path d="M55.645,90.419a1.9,1.9,0,0,1-.543-1.384,1.914,1.914,0,1,1,3.828,0,1.9,1.9,0,0,1-.543,1.384,1.968,1.968,0,0,1-2.742,0Zm2.742,6.531a2.868,2.868,0,0,1,.543,1.888,5.926,5.926,0,0,1-1.707,4.242,1.014,1.014,0,0,1-.724.337.97.97,0,0,1-.673-.259.809.809,0,0,1-.284-.621.88.88,0,0,1,.258-.6,3.96,3.96,0,0,0,1.009-1.862,1.9,1.9,0,0,1-1.228-.582,1.747,1.747,0,0,1-.479-1.255,1.929,1.929,0,0,1,.53-1.383,1.88,1.88,0,0,1,2.755.09Z" fill="#fff"/><path d="M71.655,92.346a1.213,1.213,0,0,1,.324.879,1.3,1.3,0,0,1-.311.893,1.254,1.254,0,0,1-.931.375,1.743,1.743,0,0,0-1.293.543,2.456,2.456,0,0,0-.362,1.5v5.018a3.141,3.141,0,0,1-.815,2.3,3.1,3.1,0,0,1-2.315.828h-1.94a1.343,1.343,0,0,1-.906-.31,1.314,1.314,0,0,1,0-1.811,1.343,1.343,0,0,1,.906-.31h.828a1.107,1.107,0,0,0,.814-.272,1.183,1.183,0,0,0,.272-.867V96.148a3.047,3.047,0,0,1,.608-1.94,2.486,2.486,0,0,1,1.435-.957,2.462,2.462,0,0,1-1.435-.97,3.1,3.1,0,0,1-.608-1.953V85.362a1.183,1.183,0,0,0-.272-.867,1.106,1.106,0,0,0-.814-.271h-.828a1.344,1.344,0,0,1-.906-.311,1.312,1.312,0,0,1,0-1.81,1.344,1.344,0,0,1,.906-.311h1.94a3.1,3.1,0,0,1,2.315.828,3.141,3.141,0,0,1,.815,2.3V89.94a2.459,2.459,0,0,0,.362,1.5,1.747,1.747,0,0,0,1.293.543A1.3,1.3,0,0,1,71.655,92.346Z" fill="#fff"/><path d="M10.765,12.9H58.033A7.766,7.766,0,0,1,65.8,20.666V45.757a7.766,7.766,0,0,1-7.765,7.765H46.478V64.7L33.821,53.522H10.765A7.766,7.766,0,0,1,3,45.757V20.666A7.766,7.766,0,0,1,10.765,12.9Z" fill="#6dc9f7"/><path d="M115.018,29.964H78.6a6.99,6.99,0,0,0-6.983,6.982V56.277A6.991,6.991,0,0,0,78.6,63.26h7.9v7.615a1,1,0,0,0,1.662.749l9.467-8.364h17.386A6.991,6.991,0,0,0,122,56.277V36.946A6.99,6.99,0,0,0,115.018,29.964ZM120,56.277a4.988,4.988,0,0,1-4.982,4.983H97.254a1,1,0,0,0-.662.25L88.5,68.657v-6.4a1,1,0,0,0-1-1H78.6a4.989,4.989,0,0,1-4.983-4.983V36.946A4.989,4.989,0,0,1,78.6,31.964h36.417A4.988,4.988,0,0,1,120,36.946Z" fill="#3a2c60"/><path d="M77.856,74.28H68.667V65.42a1,1,0,0,0-1.662-.749L56.128,74.28H36.177a7.857,7.857,0,0,0-7.848,7.847v22.125a7.857,7.857,0,0,0,7.848,7.847H77.856a7.856,7.856,0,0,0,7.847-7.847V82.127A7.856,7.856,0,0,0,77.856,74.28ZM83.7,104.252a5.854,5.854,0,0,1-5.847,5.847H36.177a5.854,5.854,0,0,1-5.848-5.847V82.127a5.854,5.854,0,0,1,5.848-5.847h20.33a1,1,0,0,0,.662-.25l9.5-8.392V75.28a1,1,0,0,0,1,1H77.856A5.854,5.854,0,0,1,83.7,82.127Z" fill="#3a2c60"/><path d="M36.276,13.9H44.25a1,1,0,0,0,0-2H36.276a1,1,0,0,0,0,2Z" fill="#3a2c60"/><path d="M45.816,65.453a1,1,0,0,0,1.662-.749V54.522H58.033A8.775,8.775,0,0,0,66.8,45.757V20.666A8.775,8.775,0,0,0,58.033,11.9H48.125a1,1,0,0,0,0,2h9.908A6.773,6.773,0,0,1,64.8,20.666V45.757a6.773,6.773,0,0,1-6.765,6.765H46.478a1,1,0,0,0-1,1v8.964l-11-9.714a1,1,0,0,0-.662-.25H10.765A6.773,6.773,0,0,1,4,45.757V20.666A6.773,6.773,0,0,1,10.765,13.9H32.241a1,1,0,0,0,0-2H10.765A8.775,8.775,0,0,0,2,20.666V45.757a8.775,8.775,0,0,0,8.765,8.765H33.443Z" fill="#3a2c60"/><path d="M25.269,38.535v.03a1.708,1.708,0,0,1-2.387,1.567l-9.624-4.171a2.452,2.452,0,0,1-1.476-2.249v-.027a2.45,2.45,0,0,1,1.476-2.248l9.624-4.171a1.708,1.708,0,0,1,2.387,1.567v.047a1.707,1.707,0,0,1-1.094,1.593l-8.3,3.2,8.316,3.274A1.708,1.708,0,0,1,25.269,38.535Z" fill="#fff"/><path d="M27.736,29.033a4.842,4.842,0,0,1,.818-2.581,6.3,6.3,0,0,1,2.386-2.165,7.51,7.51,0,0,1,3.66-.858,7.816,7.816,0,0,1,3.432.717,5.579,5.579,0,0,1,2.3,1.951,4.789,4.789,0,0,1,.811,2.681,4.151,4.151,0,0,1-.463,2,6.129,6.129,0,0,1-1.1,1.482q-.638.622-2.286,2.1a9.259,9.259,0,0,0-.731.73,3.016,3.016,0,0,0-.409.577,2.814,2.814,0,0,0-.207.523c-.05.174-.123.48-.222.918A1.491,1.491,0,0,1,34.131,38.5a1.633,1.633,0,0,1-1.173-.455,1.794,1.794,0,0,1-.476-1.355,4.992,4.992,0,0,1,.348-1.95,4.941,4.941,0,0,1,.926-1.448,20.947,20.947,0,0,1,1.555-1.482q.858-.75,1.24-1.132a3.832,3.832,0,0,0,.643-.852,2.051,2.051,0,0,0,.262-1.019,2.37,2.37,0,0,0-.8-1.81,2.915,2.915,0,0,0-2.058-.737A2.848,2.848,0,0,0,32.428,27a5.935,5.935,0,0,0-1.18,2.192q-.454,1.515-1.729,1.515a1.7,1.7,0,0,1-1.267-.53A1.619,1.619,0,0,1,27.736,29.033Zm6.542,14.694a2.107,2.107,0,0,1-1.427-.53,1.855,1.855,0,0,1-.61-1.481A1.908,1.908,0,0,1,32.83,40.3a2,2,0,0,1,1.448-.577,1.971,1.971,0,0,1,2,2,1.873,1.873,0,0,1-.6,1.475A2.04,2.04,0,0,1,34.278,43.727Z" fill="#fff"/><path d="M55.544,35.962l-9.625,4.191a1.708,1.708,0,0,1-2.39-1.566v-.024a1.706,1.706,0,0,1,1.084-1.589L52.954,33.7l-8.333-3.225a1.707,1.707,0,0,1-1.092-1.592h0a1.708,1.708,0,0,1,2.384-1.569l9.623,4.152a2.45,2.45,0,0,1,1.48,2.25h0A2.451,2.451,0,0,1,55.544,35.962Z" fill="#fff"/></svg>
